<?xml version="1.0" standalone="no"?>
<!DOCTYPE svg PUBLIC "-//W3C//DTD SVG 20010904//EN"
 "http://www.w3.org/TR/2001/REC-SVG-20010904/DTD/svg10.dtd">
<svg version="1.0" xmlns="http://www.w3.org/2000/svg"
 width="702.000000pt" height="716.000000pt" viewBox="0 0 702.000000 716.000000"
 preserveAspectRatio="xMidYMid meet">
<metadata>
Created by potrace 1.16, written by Peter Selinger 2001-2019
</metadata>
<g transform="translate(0.000000,716.000000) scale(0.100000,-0.100000)"
fill="#000000" stroke="none">
<path d="M3620 6528 c25 -12 68 -45 96 -74 41 -41 55 -65 72 -120 24 -80 25
-92 6 -160 -56 -199 -269 -285 -447 -180 -79 46 -146 153 -148 236 -1 43 -1
44 -11 16 -14 -37 3 -141 32 -202 28 -56 95 -126 151 -156 39 -20 58 -23 164
-23 98 0 126 3 155 19 62 33 114 82 150 142 35 58 35 59 35 179 0 114 -1 122
-29 169 -42 72 -108 132 -172 155 -76 29 -113 28 -54 -1z"/>
<path d="M2660 5991 c0 -6 -10 -11 -22 -11 -43 0 -96 -20 -129 -50 -19 -16
-37 -30 -41 -30 -5 0 -8 -6 -8 -14 0 -8 -8 -21 -18 -28 -37 -26 -57 -105 -56
-218 1 -102 2 -107 38 -170 44 -75 60 -95 95 -115 85 -47 94 -49 211 -50 105
0 119 2 165 27 85 45 141 115 169 210 56 193 -54 400 -232 439 -78 17 -172 23
-172 10z"/>
<path d="M4340 5991 c0 -6 8 -12 18 -13 83 -7 178 -82 222 -176 32 -67 31
-172 -1 -233 -32 -60 -58 -91 -94 -115 -16 -10 -35 -24 -42 -30 -6 -6 -39 -17
-73 -23 -107 -21 -213 14 -282 93 -46 52 -48 55 -48 63 0 4 -7 21 -15 37 -8
16 -15 34 -14 40 1 6 1 36 0 66 -2 86 -21 40 -21 -52 0 -99 26 -170 86 -237
84 -94 215 -131 357 -101 84 17 169 85 216 170 35 62 36 69 36 165 0 91 -3
105 -30 159 -29 57 -94 125 -148 152 -15 8 -48 19 -75 24 -26 5 -57 12 -69 16
-14 4 -23 2 -23 -5z"/>
<path d="M1250 5703 c0 -5 6 -15 13 -22 10 -11 8 -13 -10 -8 -37 8 -29 -39 21
-134 62 -117 121 -266 152 -384 21 -79 28 -133 33 -263 3 -89 3 -162 -1 -162
-5 0 -8 -9 -8 -20 0 -11 4 -20 9 -20 5 0 11 -9 14 -21 5 -17 3 -18 -9 -8 -12
10 -17 9 -27 -1 -9 -10 -9 -13 1 -17 17 -7 15 -33 -3 -33 -8 0 -15 -4 -15 -9
0 -5 7 -11 15 -15 8 -3 15 -13 14 -23 0 -11 -3 -13 -6 -5 -5 14 -33 17 -33 3
0 -5 7 -11 15 -15 8 -3 15 -13 14 -23 0 -11 -3 -13 -6 -5 -7 17 -33 15 -33 -3
0 -8 5 -15 12 -15 6 0 3 -7 -8 -15 -15 -11 -16 -15 -4 -15 8 -1 4 -6 -10 -11
-23 -9 -23 -11 -7 -20 9 -6 17 -18 16 -27 0 -10 -3 -12 -6 -4 -5 14 -33 17
-33 3 0 -5 7 -11 15 -15 8 -3 15 -11 15 -18 0 -8 -3 -9 -8 -3 -4 6 -13 11 -21
13 -12 3 -12 0 -1 -12 10 -13 10 -16 -3 -16 -12 0 -15 -9 -12 -37 1 -21 -1
-47 -6 -58 -8 -16 -8 -15 -4 8 6 30 -6 35 -25 12 -10 -13 -10 -19 4 -33 21
-24 21 -38 -1 -21 -15 12 -16 12 -10 -3 4 -10 2 -18 -4 -18 -6 0 -8 -7 -5 -16
8 -22 -11 -54 -29 -48 -10 4 -15 0 -15 -11 0 -10 5 -14 13 -9 6 4 4 -2 -6 -14
-11 -11 -16 -26 -12 -31 3 -7 -3 -11 -17 -12 -17 -1 -18 -3 -5 -6 25 -7 21
-22 -5 -16 -21 4 -22 3 -4 -7 15 -10 16 -14 5 -21 -8 -5 -17 -3 -22 4 -5 7 -6
-1 -3 -20 3 -19 -1 -43 -9 -60 -10 -19 -15 -22 -15 -10 0 9 -5 17 -11 17 -6 0
-9 -9 -6 -20 3 -13 0 -20 -8 -20 -20 0 -25 -14 -13 -30 8 -12 8 -11 3 5 -4 14
-3 17 5 9 16 -16 2 -43 -21 -37 -11 3 -19 0 -19 -6 0 -7 5 -9 10 -6 5 3 10 -4
10 -16 0 -17 -3 -19 -13 -10 -11 9 -13 4 -12 -22 3 -45 -3 -56 -28 -50 -22 5
-22 5 -2 -10 11 -8 17 -19 12 -23 -4 -4 -7 -2 -7 5 0 7 -5 9 -10 6 -7 -4 -7
-13 0 -25 8 -16 7 -18 -4 -14 -15 6 -29 -23 -23 -47 2 -8 2 -11 0 -6 -7 11
-33 8 -33 -4 0 -5 4 -8 9 -5 5 3 11 -3 14 -13 3 -15 0 -17 -17 -13 -20 5 -20
5 -3 -12 18 -19 22 -28 9 -24 -4 2 -18 -7 -30 -18 -19 -18 -21 -22 -8 -27 23
-9 19 -26 -4 -20 -12 3 -20 0 -20 -6 0 -7 4 -10 9 -7 5 3 12 -1 15 -10 9 -24
8 -26 -15 -13 -19 10 -20 8 -14 -10 3 -12 2 -21 -3 -21 -6 0 -13 -7 -16 -16
-3 -8 -2 -12 3 -9 5 3 13 0 16 -6 4 -6 -2 -13 -14 -16 -23 -6 -29 -23 -8 -23
7 0 13 -12 14 -27 0 -16 -1 -20 -4 -10 -6 24 -33 21 -33 -4 0 -11 4 -18 9 -15
10 6 25 -43 16 -52 -3 -3 -5 2 -5 10 0 9 -6 18 -13 21 -28 10 -38 -97 -35
-343 5 -309 31 -447 132 -699 148 -369 473 -721 888 -961 156 -90 135 -79 275
-143 333 -153 768 -278 1019 -294 l81 -5 7 27 c11 43 -1 62 -106 179 -348 386
-584 823 -684 1266 -82 362 -74 748 26 1190 11 47 26 128 34 180 8 52 22 133
30 180 24 131 39 302 39 440 2 330 -101 600 -325 858 -225 257 -529 439 -883
527 -87 22 -155 30 -155 18z m49 -73 c0 -10 -3 -8 -9 5 -12 27 -12 43 0 25 5
-8 9 -22 9 -30z m64 23 c-7 -2 -19 -2 -25 0 -7 3 -2 5 12 5 14 0 19 -2 13 -5z
m60 -10 c-7 -2 -19 -2 -25 0 -7 3 -2 5 12 5 14 0 19 -2 13 -5z m139 -41 c7 3
19 -1 27 -9 12 -13 11 -15 -5 -10 -10 4 -32 9 -47 13 -21 5 -25 9 -16 15 8 4
16 3 20 -3 4 -6 13 -9 21 -6z m-213 -72 c0 -10 -3 -8 -9 5 -12 27 -12 43 0 25
5 -8 9 -22 9 -30z m316 30 c-3 -5 -12 -10 -18 -10 -7 0 -6 4 3 10 19 12 23 12
15 0z m66 -43 c-10 -9 -11 -8 -5 6 3 10 9 15 12 12 3 -3 0 -11 -7 -18z m64
-27 c3 -6 -1 -7 -9 -4 -18 7 -21 14 -7 14 6 0 13 -4 16 -10z m105 -70 c0 -6
-9 -2 -20 7 -11 10 -20 19 -20 21 0 1 9 -2 20 -8 11 -6 20 -15 20 -20z m-491
-23 c1 -4 -5 -2 -13 5 -7 7 -11 19 -8 27 4 11 7 10 13 -5 4 -10 8 -23 8 -27z
m535 -3 c3 -8 2 -12 -4 -9 -6 3 -10 10 -10 16 0 14 7 11 14 -7z m70 -63 c-5
-6 -34 20 -34 30 0 5 8 1 18 -8 10 -10 17 -20 16 -22z m-559 -89 c-3 -3 -8 9
-11 27 -4 17 -11 34 -15 37 -5 3 -6 11 -2 17 4 7 12 -6 20 -32 7 -25 11 -47 8
-49z m765 -101 c13 -11 12 -12 -6 -3 -12 7 -24 19 -28 29 -5 16 -4 16 7 3 7
-8 19 -21 27 -29z m-722 -120 c-2 -52 -4 -57 -17 -43 -12 11 -13 16 -3 20 7 2
12 21 12 43 0 21 2 39 5 39 3 0 4 -26 3 -59z m806 13 c3 -8 2 -12 -4 -9 -6 3
-10 10 -10 16 0 14 7 11 14 -7z m56 -99 c0 -5 -5 -3 -10 5 -5 8 -10 20 -10 25
0 6 5 3 10 -5 5 -8 10 -19 10 -25z m48 -90 c-3 -3 -9 2 -12 12 -6 14 -5 15 5
6 7 -7 10 -15 7 -18z m-908 -47 c0 -51 -5 -47 -13 10 -3 24 -1 40 4 36 5 -3 9
-24 9 -46z m947 -40 c-3 -8 -6 -5 -6 6 -1 11 2 17 5 13 3 -3 4 -12 1 -19z m10
-40 c-3 -8 -6 -5 -6 6 -1 11 2 17 5 13 3 -3 4 -12 1 -19z m40 -150 c-3 -7 -5
-2 -5 12 0 14 2 19 5 13 2 -7 2 -19 0 -25z m10 -85 c-3 -10 -5 -4 -5 12 0 17
2 24 5 18 2 -7 2 -21 0 -30z m10 -135 c-3 -8 -6 -5 -6 6 -1 11 2 17 5 13 3 -3
4 -12 1 -19z m-10 -210 c-2 -13 -4 -5 -4 17 -1 22 1 32 4 23 2 -10 2 -28 0
-40z m-6 -90 c-4 -35 -6 -38 -9 -15 -3 26 3 57 10 57 2 0 1 -19 -1 -42z m-44
-255 c-3 -10 -5 -4 -5 12 0 17 2 24 5 18 2 -7 2 -21 0 -30z m-10 -75 c-3 -7
-5 -2 -5 12 0 14 2 19 5 13 2 -7 2 -19 0 -25z m-35 -175 c-3 -16 -7 -22 -10
-15 -4 13 4 42 11 42 2 0 2 -12 -1 -27z m-15 -90 c-3 -10 -5 -4 -5 12 0 17 2
24 5 18 2 -7 2 -21 0 -30z m-4 -38 c-3 -9 -8 -14 -10 -11 -3 3 -2 9 2 15 9 16
15 13 8 -4z m-36 -182 c-3 -10 -5 -2 -5 17 0 19 2 27 5 18 2 -10 2 -26 0 -35z
m-10 -90 c-3 -10 -5 -4 -5 12 0 17 2 24 5 18 2 -7 2 -21 0 -30z m-1453 -39 c3
-8 2 -12 -4 -9 -6 3 -10 10 -10 16 0 14 7 11 14 -7z m33 -386 c-3 -8 -6 -5 -6
6 -1 11 2 17 5 13 3 -3 4 -12 1 -19z m10 -80 c-3 -7 -5 -2 -5 12 0 14 2 19 5
13 2 -7 2 -19 0 -25z m1410 -105 c-3 -10 -5 -4 -5 12 0 17 2 24 5 18 2 -7 2
-21 0 -30z m-1370 -45 c-3 -8 -6 -5 -6 6 -1 11 2 17 5 13 3 -3 4 -12 1 -19z
m1385 -37 c2 -17 1 -28 -4 -25 -8 5 -12 54 -4 54 2 0 6 -13 8 -29z m-1363 -26
c0 -5 -4 -3 -9 5 -5 8 -9 22 -9 30 0 16 17 -16 18 -35z m1398 -152 c-3 -10 -5
-4 -5 12 0 17 2 24 5 18 2 -7 2 -21 0 -30z m10 -45 c-3 -8 -6 -5 -6 6 -1 11 2
17 5 13 3 -3 4 -12 1 -19z m-1267 -113 c0 -5 -5 -3 -10 5 -5 8 -10 20 -10 25
0 6 5 3 10 -5 5 -8 10 -19 10 -25z m1307 -7 c-3 -8 -6 -5 -6 6 -1 11 2 17 5
13 3 -3 4 -12 1 -19z m10 -40 c-3 -8 -6 -5 -6 6 -1 11 2 17 5 13 3 -3 4 -12 1
-19z m-1257 -51 c0 -5 -7 -2 -15 7 -8 8 -15 20 -15 27 0 14 29 -20 30 -34z
m1297 -49 c-3 -8 -6 -5 -6 6 -1 11 2 17 5 13 3 -3 4 -12 1 -19z m23 -43 c14
-19 14 -19 -2 -6 -10 7 -18 18 -18 24 0 6 1 8 3 6 1 -2 9 -13 17 -24z m-1219
-42 c13 -17 13 -17 -6 -3 -11 8 -22 16 -24 17 -2 2 0 3 6 3 6 0 17 -8 24 -17z
m26 -45 c-3 -8 -6 -5 -6 6 -1 11 2 17 5 13 3 -3 4 -12 1 -19z m1237 -14 c3 -8
2 -12 -4 -9 -6 3 -10 10 -10 16 0 14 7 11 14 -7z m-1163 -51 c13 -17 13 -17
-6 -3 -11 8 -22 16 -24 17 -2 2 0 3 6 3 6 0 17 -8 24 -17z m1209 -48 c14 -19
14 -19 -2 -6 -10 7 -18 18 -18 24 0 6 1 8 3 6 1 -2 9 -13 17 -24z m-1159 -2
c13 -16 12 -17 -3 -4 -10 7 -18 15 -18 17 0 8 8 3 21 -13z m44 -44 c11 -16 1
-19 -13 -3 -7 8 -8 14 -3 14 5 0 13 -5 16 -11z m69 -54 c25 -19 16 -19 -20 0
-16 8 -22 15 -14 15 8 -1 24 -7 34 -15z m1106 -20 c0 -5 -5 -3 -10 5 -5 8 -10
20 -10 25 0 6 5 3 10 -5 5 -8 10 -19 10 -25z m-1075 -15 c3 -5 1 -10 -4 -10
-6 0 -11 5 -11 10 0 6 2 10 4 10 3 0 8 -4 11 -10z m70 -58 c-3 -3 -11 0 -18 7
-9 10 -8 11 6 5 10 -3 15 -9 12 -12z m54 -29 c2 -2 -3 -3 -11 -3 -9 0 -19 7
-22 16 -6 15 -4 15 11 3 10 -7 20 -15 22 -16z m1011 17 c0 -5 -2 -10 -4 -10
-3 0 -8 5 -11 10 -3 6 -1 10 4 10 6 0 11 -4 11 -10z m-960 -56 c0 -2 -9 0 -20
6 -11 6 -20 13 -20 16 0 2 9 0 20 -6 11 -6 20 -13 20 -16z m1000 -19 c0 -5 -5
-3 -10 5 -5 8 -10 20 -10 25 0 6 5 3 10 -5 5 -8 10 -19 10 -25z m-925 -26 c11
-16 1 -19 -13 -3 -7 8 -8 14 -3 14 5 0 13 -5 16 -11z m80 -49 c3 -6 -1 -7 -9
-4 -18 7 -21 14 -7 14 6 0 13 -4 16 -10z m90 -51 c11 -16 1 -19 -13 -3 -7 8
-8 14 -3 14 5 0 13 -5 16 -11z m860 -18 c-6 -5 -25 10 -25 20 0 5 6 4 14 -3 8
-7 12 -15 11 -17z m-655 -81 c8 -5 11 -10 5 -10 -5 0 -17 5 -25 10 -8 5 -10
10 -5 10 6 0 17 -5 25 -10z m107 -46 c-3 -3 -12 -4 -19 -1 -8 3 -5 6 6 6 11 1
17 -2 13 -5z m647 -10 c3 -8 2 -12 -4 -9 -6 3 -10 10 -10 16 0 14 7 11 14 -7z
m-494 -44 c18 -12 2 -12 -25 0 -13 6 -15 9 -5 9 8 0 22 -4 30 -9z m144 -49 c4
-5 -3 -7 -14 -4 -23 6 -26 13 -6 13 8 0 17 -4 20 -9z m462 -29 c-4 -3 -14 2
-24 12 -16 18 -16 18 6 6 13 -6 21 -14 18 -18z m-389 12 c-3 -3 -12 -4 -19 -1
-8 3 -5 6 6 6 11 1 17 -2 13 -5z m90 -30 c-3 -3 -12 -4 -19 -1 -8 3 -5 6 6 6
11 1 17 -2 13 -5z m50 -10 c-3 -3 -12 -4 -19 -1 -8 3 -5 6 6 6 11 1 17 -2 13
-5z m236 -51 c-7 -2 -19 -2 -25 0 -7 3 -2 5 12 5 14 0 19 -2 13 -5z m102 -21
c-2 -2 -10 0 -17 4 -7 5 -22 8 -33 6 l-20 -2 20 9 c18 7 60 -7 50 -17z"/>
<path d="M5718 5702 c-9 -2 -19 -11 -21 -20 -4 -15 -5 -15 -6 -1 -1 12 -8 15
-26 11 -31 -6 -33 -29 -2 -35 19 -4 18 -4 -5 -6 -16 0 -28 4 -28 9 0 6 -10 10
-22 10 -22 -1 -23 -1 -4 -15 19 -15 19 -15 -1 -15 -12 0 -24 6 -27 13 -5 9 -7
9 -12 0 -3 -8 -15 -11 -30 -7 -19 5 -24 2 -25 -12 0 -11 -3 -14 -6 -6 -7 17
-23 15 -23 -3 0 -8 6 -15 13 -16 6 -1 -8 -7 -32 -15 -35 -11 -47 -11 -59 -1
-13 10 -15 9 -9 -11 5 -22 4 -23 -12 -8 -24 22 -34 20 -28 -4 7 -27 -1 -25
-14 3 -9 21 -9 20 -6 -5 5 -31 -2 -35 -22 -15 -12 10 -13 9 -7 -7 6 -17 5 -17
-11 -5 -15 13 -16 12 -10 -9 6 -23 5 -24 -15 -5 -21 18 -21 18 -16 -5 4 -12 2
-20 -3 -16 -5 3 -9 1 -9 -4 0 -6 -7 -12 -15 -16 -8 -3 -14 -1 -12 3 1 5 -2 9
-8 10 -5 0 -10 -9 -9 -21 1 -19 0 -19 -11 -4 -17 22 -28 20 -22 -5 5 -17 2
-20 -14 -16 -13 4 -19 1 -16 -6 2 -7 -3 -19 -11 -27 -14 -13 -15 -12 -10 2 4
9 4 19 1 22 -10 10 -33 -15 -33 -35 0 -10 -4 -21 -10 -24 -6 -3 -7 1 -4 9 12
32 -18 15 -31 -18 -8 -19 -20 -38 -27 -42 -10 -6 -11 -4 0 7 15 16 16 29 2 29
-5 0 -20 -16 -32 -35 -14 -21 -29 -33 -37 -30 -20 8 -152 -125 -145 -146 2
-10 -2 -19 -11 -23 -9 -3 -13 -10 -10 -16 3 -5 0 -7 -8 -4 -15 5 -39 -18 -35
-34 2 -6 -6 -18 -17 -27 l-20 -17 20 6 c20 6 20 6 1 -9 -11 -8 -26 -15 -34
-15 -10 0 -13 -7 -9 -21 8 -31 -12 -69 -32 -61 -14 5 -14 4 -2 -11 12 -15 12
-17 -4 -10 -14 5 -17 3 -12 -10 3 -9 2 -17 -3 -17 -5 0 -7 -6 -4 -14 4 -11 0
-13 -18 -10 -20 5 -21 4 -5 -6 9 -6 17 -16 17 -23 0 -8 -3 -8 -8 -2 -4 6 -13
11 -21 13 -12 3 -12 0 -1 -12 8 -11 9 -16 1 -16 -6 0 -11 -6 -11 -14 0 -8 -8
-17 -17 -19 -17 -4 -17 -5 0 -6 9 0 17 -8 17 -17 0 -8 -5 -12 -10 -9 -7 4 -9
-3 -5 -22 3 -15 2 -22 -1 -15 -3 6 -13 12 -22 12 -12 0 -13 -3 -4 -12 16 -16
15 -31 -2 -25 -8 3 -17 0 -20 -8 -3 -8 3 -16 12 -18 14 -4 13 -6 -5 -12 -23
-7 -33 -27 -12 -23 7 2 13 -12 14 -32 2 -19 1 -25 -2 -12 -2 12 -11 22 -19 22
-19 0 -18 -49 1 -56 9 -4 14 -17 14 -33 -2 -22 -2 -23 -6 -4 -6 31 -33 39 -33
9 0 -14 -3 -32 -7 -42 -4 -12 -3 -15 5 -10 7 4 12 3 12 -2 0 -6 -7 -13 -15
-16 -31 -11 -8 -418 35 -630 6 -28 21 -113 34 -188 14 -76 27 -142 30 -146 5
-8 45 -247 67 -397 14 -91 12 -565 -2 -565 -4 0 -9 -14 -13 -31 -4 -24 -2 -35
11 -46 17 -13 17 -13 -2 -11 -25 4 -32 -29 -10 -46 10 -7 15 -19 12 -27 -4
-10 -6 -9 -6 4 -1 19 -16 23 -26 7 -3 -6 1 -17 9 -26 9 -8 16 -25 16 -36 0
-21 0 -21 -20 2 l-20 23 0 -22 c0 -12 7 -24 15 -27 8 -4 15 -13 15 -21 0 -12
-3 -11 -17 3 -17 17 -18 17 -22 -1 -2 -11 2 -21 8 -23 16 -5 14 -22 -3 -22 -8
0 -18 -4 -21 -10 -3 -5 0 -7 7 -5 10 4 13 -3 12 -22 -1 -15 -3 -30 -4 -33 -4
-7 -7 -23 -9 -45 -2 -11 -5 -15 -8 -7 -2 6 -11 12 -19 12 -17 0 -19 -27 -2
-32 8 -3 4 -10 -10 -17 -21 -11 -22 -14 -8 -24 23 -17 3 -89 -21 -80 -12 5
-14 3 -8 -6 4 -8 2 -16 -4 -21 -7 -4 -14 -26 -16 -50 -2 -23 -7 -45 -11 -49
-4 -3 -4 7 0 22 6 26 5 27 -14 17 -24 -13 -26 -35 -5 -44 8 -3 15 -11 15 -18
0 -9 -3 -8 -10 2 -9 13 -14 7 -11 -13 0 -4 -4 -7 -10 -7 -6 0 -8 -9 -4 -21 5
-15 4 -19 -4 -15 -6 4 -11 2 -11 -3 0 -6 -8 -11 -17 -11 -15 0 -16 -2 -3 -10
9 -6 17 -5 23 3 6 8 7 6 3 -6 -3 -10 -6 -20 -6 -23 0 -2 -7 0 -17 3 -11 4 -14
3 -9 -5 4 -7 2 -12 -4 -12 -7 0 -10 -7 -6 -15 9 -25 -3 -43 -27 -38 -22 5 -22
5 -2 -11 20 -17 20 -17 -2 -13 -15 3 -23 0 -23 -8 0 -7 -3 -22 -6 -32 -5 -15
-4 -15 5 -3 7 10 11 11 11 3 0 -19 -39 -55 -52 -47 -7 5 -9 -1 -5 -17 3 -13
-1 -35 -8 -49 -9 -16 -14 -19 -15 -10 0 9 5 21 12 28 9 9 8 12 -4 12 -17 0
-33 -33 -24 -49 3 -5 -1 -11 -9 -15 -8 -3 -15 -11 -15 -18 0 -9 3 -8 10 2 7
10 10 11 10 2 0 -7 -7 -15 -15 -18 -8 -4 -12 -10 -9 -15 3 -5 -3 -6 -12 -2
-13 5 -16 3 -11 -10 4 -11 -1 -18 -14 -22 -10 -4 -19 -15 -19 -26 0 -12 -7
-19 -19 -19 -15 0 -18 -6 -15 -30 2 -16 -2 -32 -8 -36 -7 -4 -8 -3 -4 4 4 7 1
12 -9 12 -11 0 -15 -6 -10 -19 3 -12 0 -21 -10 -25 -9 -3 -14 -9 -11 -14 2 -4
0 -14 -6 -22 -8 -12 -9 -12 -4 3 3 11 0 17 -10 17 -8 0 -13 -4 -10 -9 3 -5 0
-21 -8 -36 -9 -17 -16 -22 -19 -13 -4 10 -8 10 -16 -2 -16 -22 -13 -33 7 -26
14 5 14 4 -2 -9 -11 -8 -23 -15 -28 -15 -4 0 -8 -9 -8 -19 0 -11 -4 -23 -10
-26 -6 -3 -7 1 -4 9 3 9 2 16 -3 16 -17 0 -53 -37 -53 -54 0 -9 -23 -38 -51
-65 -46 -44 -50 -52 -44 -80 6 -31 7 -31 67 -31 86 0 387 61 548 112 494 154
789 303 1103 556 357 288 589 666 673 1097 13 66 19 154 21 333 4 272 -4 333
-71 527 -67 195 -81 225 -226 515 -160 320 -210 443 -262 635 -29 110 -32 132
-31 265 1 217 41 361 175 628 62 123 70 146 62 170 -7 21 -17 28 -42 30 -24 2
-32 -1 -32 -12 0 -19 -16 -21 -27 -3 -4 7 -16 11 -25 9z m19 -37 c0 -8 -4 -15
-9 -15 -4 0 -8 -8 -9 -17 0 -10 -3 -13 -5 -6 -3 7 0 21 6 32 13 25 17 26 17 6z
m-37 -70 c-7 -9 -15 -13 -19 -10 -3 3 1 10 9 15 21 14 24 12 10 -5z m-29 -56
c-5 -13 -10 -19 -10 -12 -1 15 10 45 15 40 3 -2 0 -15 -5 -28z m-47 -96 c-4
-16 -10 -32 -15 -37 -5 -5 -4 6 1 25 6 18 10 35 10 36 0 2 2 3 5 3 3 0 2 -12
-1 -27z m-50 -137 c-3 -15 -8 -25 -11 -23 -2 3 -1 17 3 31 3 15 8 25 11 23 2
-3 1 -17 -3 -31z m-634 -20 c0 -3 -4 -8 -10 -11 -5 -3 -10 -1 -10 4 0 6 5 11
10 11 6 0 10 -2 10 -4z m-20 -30 c0 -3 -4 -8 -10 -11 -5 -3 -10 -1 -10 4 0 6
5 11 10 11 6 0 10 -2 10 -4z m-92 -86 c-7 -10 -14 -17 -17 -15 -4 4 18 35 25
35 2 0 -1 -9 -8 -20z m699 -22 c-3 -8 -6 -5 -6 6 -1 11 2 17 5 13 3 -3 4 -12
1 -19z m-10 -85 c-3 -10 -5 -2 -5 17 0 19 2 27 5 18 2 -10 2 -26 0 -35z m-10
-85 c-3 -8 -6 -5 -6 6 -1 11 2 17 5 13 3 -3 4 -12 1 -19z m0 -140 c-3 -7 -5
-2 -5 12 0 14 2 19 5 13 2 -7 2 -19 0 -25z m10 -105 c-3 -10 -5 -2 -5 17 0 19
2 27 5 18 2 -10 2 -26 0 -35z m10 -55 c-3 -8 -6 -5 -6 6 -1 11 2 17 5 13 3 -3
4 -12 1 -19z m52 -168 c0 -9 -4 -8 -9 5 -5 11 -9 27 -9 35 0 9 4 8 9 -5 5 -11
9 -27 9 -35z m-1082 -202 c-2 -18 -4 -4 -4 32 0 36 2 50 4 33 2 -18 2 -48 0
-65z m1183 -53 c0 -5 -5 -3 -10 5 -5 8 -10 20 -10 25 0 6 5 3 10 -5 5 -8 10
-19 10 -25z m37 -87 c-3 -8 -6 -5 -6 6 -1 11 2 17 5 13 3 -3 4 -12 1 -19z m23
-53 c0 -5 -5 -3 -10 5 -5 8 -10 20 -10 25 0 6 5 3 10 -5 5 -8 10 -19 10 -25z
m40 -70 c0 -5 -5 -3 -10 5 -5 8 -10 20 -10 25 0 6 5 3 10 -5 5 -8 10 -19 10
-25z m-1260 -10 c0 -19 -4 -35 -8 -35 -4 0 -6 16 -4 35 2 19 6 35 8 35 2 0 4
-16 4 -35z m1357 -177 c-3 -8 -6 -5 -6 6 -1 11 2 17 5 13 3 -3 4 -12 1 -19z
m-1318 -55 c-1 -16 1 -36 5 -45 4 -9 6 -25 3 -35 -3 -13 -5 -10 -6 8 0 14 -5
29 -10 35 -9 9 -4 64 6 64 2 0 4 -12 2 -27z m1371 -58 c0 -5 -5 -3 -10 5 -5 8
-10 20 -10 25 0 6 5 3 10 -5 5 -8 10 -19 10 -25z m49 -115 c0 -10 -3 -8 -9 5
-12 27 -12 43 0 25 5 -8 9 -22 9 -30z m-1372 -82 c-3 -8 -6 -5 -6 6 -1 11 2
17 5 13 3 -3 4 -12 1 -19z m5 -80 c-6 -6 -7 0 -4 19 5 21 7 23 10 9 2 -10 0
-22 -6 -28z m1465 -140 c-3 -7 -5 -2 -5 12 0 14 2 19 5 13 2 -7 2 -19 0 -25z
m-1420 -75 c-3 -10 -5 -2 -5 17 0 19 2 27 5 18 2 -10 2 -26 0 -35z m1430 5
c-3 -7 -5 -2 -5 12 0 14 2 19 5 13 2 -7 2 -19 0 -25z m-1417 -71 c0 -12 -4
-28 -8 -34 -5 -7 -8 4 -7 26 0 22 3 37 8 34 4 -2 7 -14 7 -26z m1427 11 c-3
-8 -6 -5 -6 6 -1 11 2 17 5 13 3 -3 4 -12 1 -19z m-1417 -123 c0 -19 -3 -36
-8 -39 -4 -2 -7 15 -7 39 0 24 3 41 8 38 4 -2 7 -19 7 -38z m1417 -277 c-3 -7
-5 -2 -5 12 0 14 2 19 5 13 2 -7 2 -19 0 -25z m-6 -75 c-4 -28 -6 -32 -9 -15
-3 22 3 52 11 52 1 0 1 -17 -2 -37z m-1414 -47 c2 -24 1 -46 -4 -49 -4 -3 -8
19 -8 49 -1 63 7 63 12 0z m1400 -48 c-3 -7 -5 -2 -5 12 0 14 2 19 5 13 2 -7
2 -19 0 -25z m-1408 -45 c0 -25 -1 -26 -9 -8 -12 27 -12 35 0 35 6 0 10 -12 9
-27z m-12 -100 c-3 -10 -5 -4 -5 12 0 17 2 24 5 18 2 -7 2 -21 0 -30z m1326
-163 c-3 -12 -8 -19 -11 -16 -5 6 5 36 12 36 2 0 2 -9 -1 -20z m-102 -197
c-12 -20 -14 -14 -5 12 4 9 9 14 11 11 3 -2 0 -13 -6 -23z m-55 -95 c-9 -12
-16 -19 -16 -15 0 11 24 47 28 42 2 -2 -3 -14 -12 -27z m-96 -137 c0 -5 -7
-12 -16 -15 -14 -5 -15 -4 -4 9 14 17 20 19 20 6z m-100 -105 c0 -2 -8 -10
-17 -17 -16 -13 -17 -12 -4 4 13 16 21 21 21 13z m-58 -68 c-7 -7 -12 -8 -12
-2 0 14 12 26 19 19 2 -3 -1 -11 -7 -17z m-37 -38 c-3 -5 -11 -10 -16 -10 -6
0 -7 5 -4 10 3 6 11 10 16 10 6 0 7 -4 4 -10z m-105 -85 c0 -2 -10 -9 -22 -15
-22 -11 -22 -10 -4 4 21 17 26 19 26 11z m-94 -70 c-8 -8 -20 -15 -27 -15 -7
0 -4 6 7 15 25 19 40 19 20 0z m-126 -89 c0 -2 -7 -7 -16 -10 -8 -3 -12 -2 -9
4 6 10 25 14 25 6z m-40 -26 c0 -5 -2 -10 -4 -10 -3 0 -8 5 -11 10 -3 6 -1 10
4 10 6 0 11 -4 11 -10z m-45 -30 c-27 -12 -43 -12 -25 0 8 5 22 9 30 9 10 0 8
-3 -5 -9z m-115 -60 c-8 -5 -19 -10 -25 -10 -5 0 -3 5 5 10 8 5 20 10 25 10 6
0 3 -5 -5 -10z m-100 -50 c-8 -5 -19 -10 -25 -10 -5 0 -3 5 5 10 8 5 20 10 25
10 6 0 3 -5 -5 -10z m-120 -54 c0 -2 -9 -6 -20 -9 -11 -3 -18 -1 -14 4 5 9 34
13 34 5z m-93 -42 c-3 -3 -12 -4 -19 -1 -8 3 -5 6 6 6 11 1 17 -2 13 -5z
m-147 -54 c-8 -5 -22 -9 -30 -9 -10 0 -8 3 5 9 27 12 43 12 25 0z m-53 -16
c-3 -3 -12 -4 -19 -1 -8 3 -5 6 6 6 11 1 17 -2 13 -5z m-84 -31 c-7 -2 -19 -2
-25 0 -7 3 -2 5 12 5 14 0 19 -2 13 -5z m-46 -9 c-3 -3 -12 -4 -19 -1 -8 3 -5
6 6 6 11 1 17 -2 13 -5z m-462 -43 c3 -5 1 -12 -5 -16 -5 -3 -10 1 -10 9 0 18
6 21 15 7z m288 -8 c-7 -2 -19 -2 -25 0 -7 3 -2 5 12 5 14 0 19 -2 13 -5z
m-240 -50 c-7 -2 -19 -2 -25 0 -7 3 -2 5 12 5 14 0 19 -2 13 -5z m-60 -10 c-7
-2 -19 -2 -25 0 -7 3 -2 5 12 5 14 0 19 -2 13 -5z"/>
<path d="M5416 5611 c-4 -7 -5 -15 -2 -18 9 -9 19 4 14 18 -4 11 -6 11 -12 0z"/>
<path d="M5445 5610 c3 -5 10 -10 16 -10 5 0 9 5 9 10 0 6 -7 10 -16 10 -8 0
-12 -4 -9 -10z"/>
<path d="M3490 5209 c0 -11 4 -18 9 -14 5 3 13 1 16 -5 4 -6 3 -9 -2 -8 -14 4
-53 -13 -53 -23 0 -13 18 -11 23 4 4 9 6 9 6 0 1 -7 -8 -17 -19 -23 -11 -6
-20 -17 -20 -26 0 -8 -7 -17 -15 -20 -8 -4 -13 -10 -10 -14 3 -5 -4 -6 -15 -3
-14 4 -20 0 -20 -11 0 -10 5 -14 11 -11 6 4 5 -2 -3 -14 -7 -12 -14 -17 -16
-11 -2 5 -8 10 -13 10 -6 0 -6 -7 0 -19 9 -15 7 -20 -11 -24 -12 -4 -19 -9
-15 -13 3 -3 -4 -15 -16 -25 -12 -10 -17 -18 -10 -19 6 0 14 6 16 13 4 9 6 9
6 -1 1 -7 -6 -15 -14 -18 -8 -4 -13 -10 -10 -14 3 -5 -5 -6 -17 -2 -19 4 -21
3 -11 -9 9 -11 9 -19 0 -36 -12 -21 -15 -23 -37 -23 -6 0 -10 -6 -8 -12 1 -7
-1 -25 -5 -40 -5 -21 -12 -25 -29 -21 -17 3 -19 2 -10 -5 11 -7 11 -10 -2 -15
-9 -4 -16 -12 -16 -19 0 -9 3 -8 10 2 16 25 10 -3 -6 -30 -8 -14 -13 -17 -10
-7 3 11 0 17 -9 17 -11 0 -12 -6 -5 -25 8 -20 7 -23 -8 -18 -9 3 -14 3 -10 -1
3 -4 2 -21 -4 -36 -7 -21 -14 -27 -26 -23 -15 6 -15 5 -3 -10 12 -15 11 -17
-9 -17 -18 0 -21 -4 -17 -23 4 -12 2 -29 -4 -37 -8 -11 -9 -9 -4 10 7 24 7 24
-8 5 -8 -11 -13 -23 -11 -27 3 -5 0 -8 -5 -8 -6 0 -11 -7 -11 -15 0 -8 -5 -15
-11 -15 -7 0 -9 -9 -6 -21 7 -26 -2 -51 -15 -43 -14 9 -29 -17 -22 -38 4 -13
0 -15 -18 -11 -21 5 -22 5 -5 -9 24 -18 13 -52 -13 -38 -15 8 -17 5 -14 -25 1
-22 -1 -33 -8 -29 -6 4 -8 -1 -4 -12 3 -11 1 -26 -5 -34 -8 -12 -9 -11 -5 6 4
14 2 21 -7 21 -9 0 -13 -9 -11 -24 1 -12 -2 -23 -7 -23 -5 0 -7 -11 -5 -25 3
-17 1 -23 -6 -19 -7 5 -9 1 -5 -9 9 -24 -2 -47 -19 -40 -17 6 -18 -9 -1 -26
10 -10 8 -11 -7 -5 -16 6 -17 4 -11 -16 5 -16 4 -20 -4 -15 -8 5 -10 -2 -6
-22 3 -15 2 -22 -1 -15 -3 6 -13 12 -21 12 -14 0 -14 -3 2 -20 10 -11 15 -23
12 -27 -4 -3 -7 -1 -7 5 0 7 -5 12 -11 12 -6 0 -9 -7 -5 -15 3 -9 0 -15 -8
-15 -9 0 -12 -7 -9 -20 4 -15 0 -20 -13 -20 -17 0 -17 -1 0 -13 16 -12 17 -18
8 -43 -6 -16 -11 -23 -11 -16 -1 6 -8 12 -16 12 -13 0 -14 -4 -5 -20 8 -15 8
-20 -1 -20 -7 0 -10 -10 -6 -27 2 -16 1 -37 -3 -48 -5 -11 -9 -14 -9 -7 -1 17
-31 15 -31 -3 0 -8 6 -15 13 -15 8 0 14 -6 14 -14 0 -8 -8 -11 -19 -8 -22 5
-25 -13 -3 -22 8 -3 14 -13 14 -23 -1 -17 -2 -17 -6 0 -5 21 -29 23 -37 2 -3
-8 -1 -15 4 -15 6 0 10 -7 10 -15 0 -9 -6 -12 -15 -9 -9 4 -15 0 -15 -9 0 -8
7 -17 15 -21 8 -3 15 -13 14 -23 0 -11 -3 -13 -6 -5 -6 17 -33 15 -33 -2 0 -8
7 -16 15 -20 8 -3 14 -13 14 -23 -1 -17 -2 -17 -6 0 -2 9 -11 17 -19 17 -17 0
-19 -36 -3 -46 8 -4 4 -13 -12 -25 -20 -16 -22 -20 -9 -29 13 -9 13 -12 -2
-21 -21 -12 -25 -54 -5 -46 10 4 13 -7 14 -37 0 -24 -1 -31 -4 -16 -3 14 -10
28 -17 32 -11 7 -19 -37 -46 -237 -12 -88 -12 -379 0 -465 36 -270 59 -378
117 -550 136 -404 390 -804 726 -1148 85 -87 93 -92 132 -92 38 0 47 6 120 77
95 95 262 293 355 423 250 348 417 737 475 1105 9 55 20 127 25 160 12 77 12
420 0 505 -43 307 -69 424 -141 641 -149 450 -390 904 -732 1377 -58 80 -62
84 -94 80 -18 -2 -33 0 -33 4 0 4 -4 8 -10 8 -5 0 -10 -9 -10 -21z m105 -127
c-3 -3 -11 0 -18 7 -9 10 -8 11 6 5 10 -3 15 -9 12 -12z m43 -77 c-3 -3 -9 2
-12 12 -6 14 -5 15 5 6 7 -7 10 -15 7 -18z m102 -149 c0 -12 -5 -7 -19 24 -11
24 -11 24 3 6 9 -11 16 -24 16 -30z m60 -81 c0 -8 -2 -15 -4 -15 -2 0 -6 7
-10 15 -3 8 -1 15 4 15 6 0 10 -7 10 -15z m40 -65 c0 -11 -2 -20 -4 -20 -2 0
-6 9 -9 20 -3 11 -1 20 4 20 5 0 9 -9 9 -20z m50 -95 c0 -5 -5 -3 -10 5 -5 8
-10 20 -10 25 0 6 5 3 10 -5 5 -8 10 -19 10 -25z m58 -100 c-3 -3 -9 2 -12 12
-6 14 -5 15 5 6 7 -7 10 -15 7 -18z m30 -46 c-3 -8 -7 -3 -11 10 -4 17 -3 21
5 13 5 -5 8 -16 6 -23z m22 -54 c0 -5 -5 -3 -10 5 -5 8 -10 20 -10 25 0 6 5 3
10 -5 5 -8 10 -19 10 -25z m99 -200 c0 -5 -4 -3 -9 5 -5 8 -9 22 -9 30 0 16
17 -16 18 -35z m38 -77 c-3 -8 -6 -5 -6 6 -1 11 2 17 5 13 3 -3 4 -12 1 -19z
m62 -148 c0 -10 -3 -8 -9 5 -12 27 -12 43 0 25 5 -8 9 -22 9 -30z m38 -102
c-3 -8 -6 -5 -6 6 -1 11 2 17 5 13 3 -3 4 -12 1 -19z m50 -140 c-3 -8 -6 -5
-6 6 -1 11 2 17 5 13 3 -3 4 -12 1 -19z m50 -190 c-3 -8 -6 -5 -6 6 -1 11 2
17 5 13 3 -3 4 -12 1 -19z m10 -50 c-3 -7 -5 -2 -5 12 0 14 2 19 5 13 2 -7 2
-19 0 -25z m10 -60 c-3 -8 -6 -5 -6 6 -1 11 2 17 5 13 3 -3 4 -12 1 -19z m35
-127 c2 -17 1 -28 -4 -25 -8 5 -12 54 -4 54 2 0 6 -13 8 -29z m5 -78 c-3 -10
-5 -4 -5 12 0 17 2 24 5 18 2 -7 2 -21 0 -30z m-1777 -3 c0 -16 -2 -30 -4 -30
-2 0 -6 14 -8 30 -3 17 -1 30 4 30 4 0 8 -13 8 -30z m1787 -102 c-3 -7 -5 -2
-5 12 0 14 2 19 5 13 2 -7 2 -19 0 -25z m-1800 -20 c-3 -8 -6 -5 -6 6 -1 11 2
17 5 13 3 -3 4 -12 1 -19z m-27 -74 c0 -8 -5 -12 -10 -9 -6 4 -8 11 -5 16 9
14 15 11 15 -7z m-3 -76 c-3 -7 -5 -2 -5 12 0 14 2 19 5 13 2 -7 2 -19 0 -25z
m30 -290 c-3 -7 -5 -2 -5 12 0 14 2 19 5 13 2 -7 2 -19 0 -25z m1800 -25 c-3
-10 -5 -4 -5 12 0 17 2 24 5 18 2 -7 2 -21 0 -30z m-1790 -80 c-3 -10 -5 -4
-5 12 0 17 2 24 5 18 2 -7 2 -21 0 -30z m1780 -20 c-3 -10 -5 -2 -5 17 0 19 2
27 5 18 2 -10 2 -26 0 -35z m-1770 -70 c-3 -10 -5 -4 -5 12 0 17 2 24 5 18 2
-7 2 -21 0 -30z m1760 -5 c-3 -7 -5 -2 -5 12 0 14 2 19 5 13 2 -7 2 -19 0 -25z
m-42 -188 c-9 -41 -17 -33 -9 9 4 17 9 30 11 27 3 -2 2 -19 -2 -36z m-1668
-22 c-3 -7 -5 -2 -5 12 0 14 2 19 5 13 2 -7 2 -19 0 -25z m1613 -158 c-6 -23
-13 -40 -15 -38 -2 2 1 23 7 46 6 24 13 41 15 38 2 -2 -1 -23 -7 -46z m-1569
-3 c-10 -9 -11 -8 -5 6 3 10 9 15 12 12 3 -3 0 -11 -7 -18z m47 -92 c-3 -3 -9
2 -12 12 -6 14 -5 15 5 6 7 -7 10 -15 7 -18z m1476 -19 c-3 -15 -8 -25 -11
-23 -2 3 -1 17 3 31 3 15 8 25 11 23 2 -3 1 -17 -3 -31z m-53 -113 c-12 -20
-14 -14 -5 12 4 9 9 14 11 11 3 -2 0 -13 -6 -23z m-37 -98 c-4 -8 -10 -15 -15
-15 -4 0 -6 7 -3 15 4 8 10 15 15 15 4 0 6 -7 3 -15z m-1264 -30 c0 -5 -5 -3
-10 5 -5 8 -10 20 -10 25 0 6 5 3 10 -5 5 -8 10 -19 10 -25z m44 -80 c3 -8 1
-15 -3 -15 -5 0 -11 7 -15 15 -3 8 -1 15 3 15 5 0 11 -7 15 -15z m1147 -8
c-10 -9 -11 -8 -5 6 3 10 9 15 12 12 3 -3 0 -11 -7 -18z m-45 -74 c-8 -15 -15
-25 -16 -21 0 12 23 58 27 54 3 -2 -2 -17 -11 -33z m-1042 -18 c3 -8 1 -15 -4
-15 -6 0 -10 7 -10 15 0 8 2 15 4 15 2 0 6 -7 10 -15z m35 -48 c12 -15 12 -17
-3 -11 -9 3 -16 13 -16 22 0 8 1 13 3 11 1 -2 9 -12 16 -22z m862 -140 c-10
-9 -11 -8 -5 6 3 10 9 15 12 12 3 -3 0 -11 -7 -18z m-111 -152 c0 -8 -4 -15
-10 -15 -5 0 -7 7 -4 15 4 8 8 15 10 15 2 0 4 -7 4 -15z m-384 -172 c-5 -5
-76 68 -76 78 0 5 18 -10 40 -33 22 -23 38 -43 36 -45z m280 59 c-17 -16 -18
-16 -5 5 7 12 15 20 18 17 3 -2 -3 -12 -13 -22z"/>
<path d="M3420 5121 c0 -6 5 -13 10 -16 6 -3 10 1 10 9 0 9 -4 16 -10 16 -5 0
-10 -4 -10 -9z"/>
<path d="M4646 4965 c4 -8 7 -15 9 -15 2 0 5 7 9 15 3 9 0 15 -9 15 -9 0 -12
-6 -9 -15z"/>
<path d="M3221 4804 c0 -11 3 -14 6 -6 3 7 2 16 -1 19 -3 4 -6 -2 -5 -13z"/>
<path d="M3121 4644 c0 -11 3 -14 6 -6 3 7 2 16 -1 19 -3 4 -6 -2 -5 -13z"/>
<path d="M2998 4433 c7 -3 16 -2 19 1 4 3 -2 6 -13 5 -11 0 -14 -3 -6 -6z"/>
<path d="M2945 4340 c3 -5 10 -10 16 -10 5 0 9 5 9 10 0 6 -7 10 -16 10 -8 0
-12 -4 -9 -10z"/>
<path d="M1265 4180 c-3 -5 1 -10 10 -10 9 0 13 5 10 10 -3 6 -8 10 -10 10 -2
0 -7 -4 -10 -10z"/>
<path d="M2855 4130 c-3 -5 -1 -10 4 -10 6 0 11 5 11 10 0 6 -2 10 -4 10 -3 0
-8 -4 -11 -10z"/>
<path d="M1165 3970 c3 -5 10 -10 16 -10 5 0 9 5 9 10 0 6 -7 10 -16 10 -8 0
-12 -4 -9 -10z"/>
<path d="M2745 3880 c3 -5 10 -10 16 -10 5 0 9 5 9 10 0 6 -7 10 -16 10 -8 0
-12 -4 -9 -10z"/>
<path d="M2704 3779 c-4 -7 -3 -9 4 -5 5 3 13 0 15 -6 4 -9 6 -10 6 -1 1 17
-16 25 -25 12z"/>
<path d="M4545 2180 c-3 -5 1 -10 9 -10 9 0 16 5 16 10 0 6 -4 10 -9 10 -6 0
-13 -4 -16 -10z"/>
<path d="M4530 2140 c0 -5 7 -10 15 -10 8 0 15 5 15 10 0 6 -7 10 -15 10 -8 0
-15 -4 -15 -10z"/>
<path d="M4480 2001 c0 -5 7 -11 15 -15 8 -3 15 -1 15 3 0 5 -7 11 -15 15 -8
3 -15 1 -15 -3z"/>
<path d="M4278 1553 c7 -3 16 -2 19 1 4 3 -2 6 -13 5 -11 0 -14 -3 -6 -6z"/>
</g>
</svg>
